<svg xmlns="http://www.w3.org/2000/svg" width="298" height="420" viewBox="0 0 298 420"><title>Slice 1</title><g fill="none"><path d="M233.164 15.681h-24.688l25.674 27.859v13.261h-52.882v-15.526h25.669l-25.669-27.86v-13.28h51.896v15.546zm-62.378 0h-24.688l25.673 27.859v13.261h-52.882v-15.526h25.672l-25.672-27.86v-13.28h51.897v15.546zm-61.768.631h-26.64v24.313h26.64v16.176h-45.574v-56.666h45.574v16.177zm0 0" fill="#fff"/><path d="M27.142 386.29l-27.071-303.62h297.45l-27.096 303.571-121.811 33.77-121.472-33.721zm0 0" fill="#1572b6"/><path d="M148.798 394.199l98.427-27.288 23.157-259.415h-121.584v286.703zm0 0" fill="#33a9dc"/><g><path d="M148.797 217.496h49.275l3.403-38.132h-52.678v-37.239h93.375l-.893 9.991-9.152 102.616h-83.33v-37.236zm0 0" fill="#fff"/><path d="M149.02 314.204l-.163.046-41.472-11.199-2.652-29.698h-37.379000000000005l5.216 58.467 76.278 21.176.172-.048v-38.744zm0 0" fill="#ebebeb"/><path d="M194.907 253.156l-4.484 49.87-41.532 11.21v38.742l76.339-21.158.56-6.29 6.478-72.374h-37.361zm0 0" fill="#fff"/><path d="M148.926 142.125v37.239h-89.947l-.747-8.37-1.697-18.878-.89-9.991h93.281zm0 0" fill="#ebebeb"/><path d="M148.797 217.5v37.238h-40.947l-.746-8.369-1.698-18.878-.89-9.991h44.281zm0 0" fill="#ebebeb"/></g></g></svg>